HIERARCHY
ROOT Hips
{
    OFFSET 0.000000 0.000000 0.000000
    CHANNELS 6 Xposition Yposition Zposition Zrotation Yrotation Xrotation
    JOINT LeftUpLeg
    {
        OFFSET 9.287805 -9.645094 4.773243
        CHANNELS 3 Zrotation Yrotation Xrotation
        JOINT LeftLeg
        {
            OFFSET 12.697812 -34.887020 0.000000
            CHANNELS 3 Zrotation Yrotation Xrotation
            JOINT LeftFoot
            {
                OFFSET 15.340069 -42.146564 0.000000
                CHANNELS 3 Zrotation Yrotation Xrotation
                JOINT LeftToeBase
                {
                    OFFSET 1.059341 -2.910479 12.685056
                    CHANNELS 3 Zrotation Yrotation Xrotation
                    End Site
                    {
                        OFFSET 0.000000 0.000000 0.000000
                    }
                }
            }
        }
    }
    JOINT RightUpLeg
    {
        OFFSET -8.965001 -9.645094 4.773243
        CHANNELS 3 Zrotation Yrotation Xrotation
        JOINT RightLeg
        {
            OFFSET -12.700239 -34.893738 0.000000
            CHANNELS 3 Zrotation Yrotation Xrotation
            JOINT RightFoot
            {
                OFFSET -15.399561 -42.310028 0.000000
                CHANNELS 3 Zrotation Yrotation Xrotation
                JOINT RightToeBase
                {
                    OFFSET -1.215860 -3.340638 11.889534
                    CHANNELS 3 Zrotation Yrotation Xrotation
                    End Site
                    {
                        OFFSET 0.000000 0.000000 0.000000
                    }
                }
            }
        }
    }
    JOINT Spine
    {
        OFFSET 0.177347 11.881236 -0.623029
        CHANNELS 3 Zrotation Yrotation Xrotation
        JOINT Spine1
        {
            OFFSET -0.105155 11.903871 -0.392624
            CHANNELS 3 Zrotation Yrotation Xrotation
            JOINT Neck1
            {
                OFFSET -0.127959 9.778246 0.025456
                CHANNELS 3 Zrotation Yrotation Xrotation
                JOINT Head
                {
                    OFFSET -0.327827 8.733242 -3.485361
                    CHANNELS 3 Zrotation Yrotation Xrotation
                    End Site
                    {
                        OFFSET 0.000000 0.000000 0.000000
                    }
                }
            }
            JOINT LeftShoulder
            {
                OFFSET 0.000000 0.000000 0.000000
                CHANNELS 3 Zrotation Yrotation Xrotation
                JOINT LeftArm
                {
                    OFFSET 19.467424 2.839020 1.237252
                    CHANNELS 3 Zrotation Yrotation Xrotation
                    JOINT LeftForeArm
                    {
                        OFFSET 30.587963 -0.000000 -0.000000
                        CHANNELS 3 Zrotation Yrotation Xrotation
                        JOINT LeftHand
                        {
                            OFFSET 13.793390 -0.000000 0.000000
                            CHANNELS 3 Zrotation Yrotation Xrotation
                            End Site
                            {
                                OFFSET 0.000000 0.000000 0.000000
                            }
                        }
                    }
                }
            }
            JOINT RightShoulder
            {
                OFFSET 0.000000 0.000000 0.000000
                CHANNELS 3 Zrotation Yrotation Xrotation
                JOINT RightArm
                {
                    OFFSET -18.232260 3.151269 1.752643
                    CHANNELS 3 Zrotation Yrotation Xrotation
                    JOINT RightForeArm
                    {
                        OFFSET -31.550840 -0.000564 0.000790
                        CHANNELS 3 Zrotation Yrotation Xrotation
                        JOINT RightHand
                        {
                            OFFSET -14.001499 -0.000000 0.000000
                            CHANNELS 3 Zrotation Yrotation Xrotation
                            End Site
                            {
                                OFFSET 0.000000 0.000000 0.000000
                            }
                        }
                    }
                }
            }
        }
    }
}
MOTION
Frames: 10
Frame Time: 0.016667
24.417677 87.958946 -85.985664 -3.213800 9.092707 30.173201 -26.129900 10.429603 -26.708401 4.350902 12.613303 37.937523 0.897804 41.102200 32.817814 0.182900 -2.754801 -7.596804 28.918715 17.923204 -40.941315 -2.411301 -9.674901 27.930109 -2.109497 -19.876301 -40.257416 -1.268101 -7.137606 20.123611 10.495013 -5.595019 -30.532776 2.663701 -2.308901 -2.210100 -2.801816 -19.394194 25.010426 -2.644602 -5.344504 16.752008 0.000000 0.000000 0.000000 -86.298302 26.460392 31.037603 17.517103 -27.534403 -4.323701 0.000000 0.000000 -6.102800 0.000000 0.000000 0.000000 74.379204 -21.520397 29.453798 -12.914702 21.162100 -2.422401 0.000000 0.000000 -18.548498 
24.385502 87.929588 -86.021225 -3.198703 9.054998 30.246096 -26.110611 10.306901 -26.829023 4.362097 12.627305 37.988892 0.498902 42.235523 32.118107 0.122800 -2.258900 -6.221800 28.896099 18.065001 -40.872398 -2.392201 -9.639200 27.816200 -2.345006 -19.385098 -40.913799 -1.426400 -7.552204 21.361893 10.368714 -5.462090 -30.610838 2.723799 -2.259700 -2.324600 -2.411490 -17.879768 25.212778 -2.550400 -4.895401 17.274590 0.000000 0.000000 0.000000 -86.265320 26.302502 31.144201 17.361797 -27.332317 -4.252100 0.000000 0.000000 -6.014700 0.000000 0.000000 0.000000 74.547913 -21.518398 29.333504 -12.892003 21.128803 -2.414199 0.000000 0.000000 -18.022493 
24.393404 87.929031 -85.979454 -3.216298 9.027905 30.237726 -26.065901 10.331400 -26.743700 4.357802 12.621907 37.969021 2.464298 40.297302 38.003498 0.226800 -3.065299 -8.460596 29.078512 17.708506 -40.904716 -2.385201 -9.626099 27.774313 -2.342602 -19.064898 -40.632809 -1.441900 -7.591300 21.479601 10.312836 -5.316071 -30.779839 2.682399 -2.214399 -2.505299 -1.979615 -16.974558 25.608801 -2.905602 -4.536303 18.605816 0.000000 0.000000 0.000000 -86.164200 26.550900 31.226398 17.432011 -27.423714 -4.284403 0.000000 0.000000 -5.963500 0.000000 0.000000 0.000000 74.681343 -21.851816 29.626123 -12.909608 21.154613 -2.420502 0.000000 0.000000 -17.794300 
24.387196 87.899681 -85.951233 -3.370304 8.971306 30.166016 -25.900612 10.316909 -26.620506 4.343701 12.604300 37.904724 1.600699 39.881413 34.653614 0.390000 -4.010002 -11.104908 29.223700 17.846800 -40.755501 -2.381801 -9.619707 27.753809 -2.162102 -19.386204 -40.072010 -1.358600 -7.378100 20.840498 10.384459 -5.076892 -30.772512 2.655500 -2.150500 -2.614100 -1.588405 -15.853619 26.019228 -2.772901 -4.202102 19.171104 0.000000 0.000000 0.000000 -86.226196 26.674202 31.073803 17.476109 -27.481100 -4.304699 0.000000 0.000000 -6.113402 0.000000 0.000000 0.000000 74.818405 -22.025805 29.723618 -13.116100 21.457005 -2.495600 0.000000 0.000000 -17.451408 
24.418804 87.878799 -85.855843 -3.527603 8.647607 29.679102 -25.849710 10.918706 -26.110212 4.306203 12.557103 37.732319 1.256810 40.303234 33.636829 0.266600 -3.321799 -9.176000 29.561407 17.530403 -40.201706 -2.388400 -9.632104 27.793308 -1.597898 -20.477404 -38.364521 -0.882300 -5.987898 16.749401 10.271446 -4.648894 -30.427271 2.644302 -2.013401 -2.632001 -1.269040 -14.775958 26.648693 -2.373700 -3.939799 18.775404 0.000000 0.000000 0.000000 -86.345551 26.632412 30.560209 17.383207 -27.360201 -4.262002 0.000000 0.000000 -5.789500 0.000000 0.000000 0.000000 75.106514 -22.032307 28.691696 -12.942905 21.203508 -2.432600 0.000000 0.000000 -16.253099 
24.433481 87.851135 -85.814636 -3.514404 8.546304 29.455202 -25.908403 11.123706 -25.765001 4.272199 12.514102 37.575901 1.124300 40.782700 33.448502 0.266600 -3.321601 -9.175303 29.609591 17.402004 -39.945107 -2.391500 -9.637900 27.811800 -2.302699 -18.851702 -40.268917 -1.372200 -7.413304 20.945700 10.112644 -4.525449 -30.233082 2.765900 -1.959100 -2.632901 -0.768962 -13.635788 26.716461 -2.093401 -3.623701 18.794811 0.000000 0.000000 0.000000 -86.547600 26.526100 30.020502 17.182701 -27.098019 -4.170204 0.000000 0.000000 -5.424100 0.000000 0.000000 0.000000 75.299408 -21.622602 27.940598 -12.495998 20.544201 -2.273299 0.000000 0.000000 -15.323000 
24.470734 87.834206 -85.740128 -3.721000 8.579008 29.274506 -25.690214 11.369602 -25.557501 4.257699 12.495704 37.508801 0.444199 41.767200 31.586496 0.103400 -2.073601 -5.709001 30.119802 16.800810 -39.904011 -2.393002 -9.640807 27.821211 -1.985000 -19.217005 -39.083199 -1.068901 -6.572402 18.454611 10.350183 -4.234596 -30.219851 2.628299 -1.897699 -2.611599 -0.240607 -12.607199 26.818659 -2.016800 -3.297201 19.406609 0.000000 0.000000 0.000000 -86.564507 26.638014 30.194317 17.245703 -27.180500 -4.198901 0.000000 0.000000 -5.606003 0.000000 0.000000 0.000000 75.587814 -21.449116 26.953903 -12.278699 20.221300 -2.197699 0.000000 0.000000 -14.759200 
24.458879 87.868073 -85.703438 -3.739800 8.364498 29.154213 -25.749992 11.506801 -25.350098 4.223206 12.451604 37.348923 -1.058301 44.229214 27.905910 0.001300 0.236200 0.649101 29.959112 17.168104 -39.741802 -2.403701 -9.660704 27.884905 -1.714399 -20.151001 -38.625198 -0.904901 -6.062202 16.965113 10.151101 -4.033259 -30.168720 2.743301 -1.812701 -3.027602 0.094187 -11.519987 27.567301 -1.766800 -3.000602 19.509600 0.000000 0.000000 0.000000 -86.637611 27.163414 30.249405 17.182604 -27.097912 -4.170199 0.000000 0.000000 -5.836100 0.000000 0.000000 0.000000 75.660301 -22.112299 27.329000 -12.534503 20.601307 -2.286900 0.000000 0.000000 -15.277400 
24.460007 87.863548 -85.616516 -3.712102 8.172701 29.075613 -25.857693 11.668502 -25.049900 4.145401 12.351502 36.986904 -0.982400 44.122826 28.098219 0.000300 0.111900 0.307500 29.839102 17.296509 -39.771812 -2.458301 -9.761703 28.208401 -1.900499 -19.914600 -39.306602 -0.906400 -6.066899 16.978500 9.977970 -3.838396 -30.181141 2.918702 -1.740201 -3.050602 0.311288 -9.958170 27.594265 -2.270702 -2.427902 21.103500 0.000000 0.000000 0.000000 -86.886200 27.257200 30.236801 17.081606 -26.965208 -4.124300 0.000000 0.000000 -6.030102 0.000000 0.000000 0.000000 75.683922 -22.151102 27.212891 -12.518499 20.577700 -2.281299 0.000000 0.000000 -15.775799 
24.444769 87.882744 -85.572495 -3.551499 7.888402 29.208017 -26.164215 11.767110 -25.091822 4.091801 12.281602 36.735508 0.010900 42.715317 30.666210 0.041700 -1.317801 -3.623798 29.326698 17.943508 -39.912498 -2.489900 -9.819604 28.394501 -1.649902 -20.902210 -39.030102 -0.829500 -5.810502 16.235607 9.476015 -3.524951 -30.542547 2.930300 -1.611600 -3.439600 0.774846 -9.304920 28.735327 -1.630401 -2.324301 20.157013 0.000000 0.000000 0.000000 -86.688019 27.966211 30.558704 17.195099 -27.114201 -4.175900 0.000000 0.000000 -5.928202 0.000000 0.000000 0.000000 76.194878 -22.779701 26.120899 -12.394406 20.393501 -2.237801 0.000000 0.000000 -15.668214 
